<svg xmlns="http://www.w3.org/2000/svg" viewBox="0 0 48 48" role="img" aria-label="TikTok Shop">
  <rect width="48" height="48" rx="10" fill="#000"/>
  <path fill="#25F4EE" d="M29.2 11.5c0 3.8 3.1 6.9 6.9 6.9v3.8c-2.4 0-4.6-.8-6.3-2.1v9.4c0 5.7-4.6 10.3-10.3 10.3S9.2 34.2 9.2 28.5s4.6-10.3 10.3-10.3c.9 0 1.7.1 2.5.3v4.2a6.1 6.1 0 0 0-2.5-.5c-3.4 0-6.1 2.7-6.1 6.1s2.7 6.1 6.1 6.1 6.1-2.7 6.1-6.1V11.5h3.6z"/>
  <path fill="#FE2C55" d="M31.2 13.5c0 3.8 3.1 6.9 6.9 6.9v3.8c-2.4 0-4.6-.8-6.3-2.1v9.4c0 5.7-4.6 10.3-10.3 10.3-1.9 0-3.6-.5-5.1-1.3 2.1 1.7 4.7 2.7 7.6 2.7 5.7 0 10.3-4.6 10.3-10.3V13.5h3.6z"/>
</svg>
